Coordinates
version=1
nRows=38
nColumns=12
inDegrees=yes

Units are S.I. units (second, meters, Newtons, ...)
Angles are in degrees

endheader
time	SC_y	SC_z	SC_x	AC_y	AC_z	AC_x	GH_y	GH_z	GH_yy	EL_x	PS_y
       0.0              -30.52          36.16           69.1          31.69         -9.963         -18.96          118.5           70.1          173.9          45.96          85.36
    0.0232              -30.52          36.16           69.1           31.7         -9.962         -18.96          118.5          70.08          173.9          45.97          85.37
    0.0464              -30.52          36.15           69.1           31.7          -9.96         -18.96          118.5          70.07          173.9          45.98          85.38
    0.0696              -30.52          36.15           69.1           31.7         -9.959         -18.96          118.5          70.06          173.9           46.0          85.38
    0.0928              -30.53          36.14           69.1           31.7         -9.957         -18.96          118.5          70.04          173.9          46.01          85.39
     0.116              -30.53          36.14           69.1          31.71         -9.956         -18.96          118.5          70.03          173.8          46.03           85.4
    0.1392              -30.53          36.13           69.1          31.71         -9.954         -18.96          118.4          70.01          173.8          46.05          85.41
    0.1624              -30.54          36.12           69.1          31.71         -9.952         -18.96          118.4          69.99          173.8          46.07          85.42
    0.1856              -30.54          36.12           69.1          31.71          -9.95         -18.96          118.4          69.97          173.8          46.09          85.44
    0.2088              -30.55          36.11           69.1          31.72         -9.947         -18.95          118.4          69.95          173.8          46.11          85.45
     0.232              -30.55           36.1           69.1          31.72         -9.945         -18.95          118.4          69.92          173.8          46.13          85.46
    0.2552              -30.56           36.1           69.1          31.73         -9.942         -18.95          118.4           69.9          173.8          46.16          85.48
    0.2784              -30.56          36.09           69.1          31.73          -9.94         -18.95          118.3          69.87          173.8          46.19          85.49
    0.3016              -30.57          36.08           69.1          31.73         -9.937         -18.95          118.3          69.84          173.8          46.22          85.51
    0.3248              -30.57          36.07           69.1          31.74         -9.933         -18.95          118.3          69.81          173.8          46.25          85.53
     0.348              -30.58          36.06           69.1          31.74          -9.93         -18.95          118.3          69.78          173.8          46.28          85.55
    0.3712              -30.59          36.04           69.1          31.75         -9.926         -18.95          118.2          69.74          173.8          46.32          85.57
    0.3944               -30.6          36.03           69.1          31.76         -9.922         -18.94          118.2           69.7          173.8          46.36          85.59
    0.4176              -30.61          36.02           69.1          31.76         -9.917         -18.94          118.2          69.66          173.8          46.41          85.62
    0.4408              -30.61           36.0           69.1          31.77         -9.912         -18.94          118.1          69.61          173.7          46.46          85.65
     0.464              -30.63          35.98           69.1          31.78         -9.907         -18.94          118.1          69.56          173.7          46.51          85.68
    0.4872              -30.64          35.96           69.1          31.79         -9.901         -18.93          118.0           69.5          173.7          46.57          85.71
    0.5104              -30.65          35.94           69.1           31.8         -9.894         -18.93          118.0          69.43          173.7          46.64          85.75
    0.5336              -30.66          35.92           69.1          31.81         -9.887         -18.93          117.9          69.36          173.7          46.71          85.79
    0.5568              -30.68          35.89           69.1          31.82         -9.879         -18.93          117.9          69.28          173.7           46.8          85.84
      0.58               -30.7          35.87          69.11          31.84         -9.869         -18.92          117.8          69.19          173.6          46.89          85.89
    0.6032              -30.72          35.83          69.11          31.85         -9.859         -18.92          117.7          69.09          173.6          46.99          85.95
    0.6264              -30.74           35.8          69.11          31.87         -9.848         -18.91          117.6          68.98          173.6           47.1          86.01
    0.6496              -30.77          35.76          69.11          31.89         -9.835         -18.91          117.5          68.86          173.6          47.23          86.09
    0.6728               -30.8          35.71          69.11          31.92          -9.82          -18.9          117.4          68.71          173.5          47.38          86.17
     0.696              -30.83          35.66          69.11          31.94         -9.803         -18.89          117.3          68.55          173.5          47.55          86.27
    0.7192              -30.87           35.6          69.11          31.97         -9.784         -18.89          117.2          68.36          173.4          47.74          86.38
    0.7424              -30.91          35.53          69.12          32.01         -9.761         -18.88          117.0          68.15          173.4          47.96           86.5
    0.7656              -30.96          35.44          69.12          32.05         -9.735         -18.86          116.8           67.9          173.3          48.22          86.65
    0.7888              -31.02          35.35          69.12          32.09         -9.705         -18.85          116.6           67.6          173.2          48.52          86.82
     0.812              -31.09          35.24          69.12          32.15         -9.669         -18.84          116.3          67.26          173.1          48.88          87.02
    0.8352              -31.17           35.1          69.13          32.22         -9.626         -18.82          116.0          66.85          173.0          49.31          87.27
    0.8584              -31.27          34.94          69.13          32.29         -9.575          -18.8          115.6          66.35          172.9          49.81          87.55
